<svg width="59" height="35" viewBox="0 0 59 35" fill="none" xmlns="http://www.w3.org/2000/svg">
<g id="Frame" clip-path="url(#clip0_376_90)">
<path id="Vector" d="M52.822 0H6.17801C2.76599 0 0 2.81077 0 6.27803V28.722C0 32.1892 2.76599 35 6.17801 35H52.822C56.234 35 59 32.1892 59 28.722V6.27803C59 2.81077 56.234 0 52.822 0Z" fill="#5FE0D8"/>
<path id="Vector_2" d="M34.3296 8.45967H37.9045V26.3677H34.3296V8.45967ZM45.8008 8.43408C50.4834 8.43408 54.7632 11.6064 54.7632 17.3881C54.7632 23.1699 50.4834 26.3677 45.8008 26.3677L43.3084 26.3422V26.3677H39.7335V8.45967H43.2832L45.8008 8.43408ZM45.8008 23.0931C48.7715 23.0931 51.3142 21.2 51.3142 17.3881C51.3142 13.5763 48.7715 11.7087 45.8008 11.7087L43.3084 11.7343V23.0675L45.8008 23.0931Z" fill="white"/>
<path id="Vector_3" d="M20.3804 20.1164C20.0974 20.0603 19.8284 20.2568 19.78 20.5445C19.3039 23.337 18.1997 25.2877 17.1025 25.2877C16.8679 25.2877 16.6333 25.1965 16.3917 25.0211C16.1641 24.8456 15.8397 24.8947 15.6672 25.1333C15.4947 25.3648 15.5498 25.6947 15.7776 25.87C16.1985 26.1858 16.6402 26.3472 17.1025 26.3472C18.7863 26.3472 20.2079 24.1932 20.7945 20.7269C20.8428 20.4392 20.6564 20.1655 20.3734 20.1164H20.3804Z" fill="white"/>
<path id="Vector_4" d="M13.8382 14.6712C13.8382 14.6712 13.9003 14.6782 13.9279 14.6782C14.1763 14.6782 14.3902 14.4958 14.4385 14.2432C14.9147 11.4506 16.0188 9.49994 17.116 9.49994C17.3506 9.49994 17.5852 9.59116 17.8268 9.76657C18.0546 9.94199 18.3788 9.88585 18.5513 9.65432C18.7239 9.42277 18.6687 9.09298 18.4411 8.91756C18.02 8.60182 17.5784 8.44043 17.116 8.44043C15.4323 8.44043 14.0107 10.5945 13.4241 14.0607C13.3758 14.3484 13.5621 14.6221 13.8451 14.6712H13.8382Z" fill="white"/>
<path id="Vector_5" d="M21.7945 15.8017C21.5737 15.6123 21.2493 15.6474 21.0631 15.8719C20.8766 16.0965 20.9112 16.4262 21.1321 16.6157C23.2712 18.433 24.3823 20.3765 23.8371 21.3449C23.7198 21.5483 23.5265 21.7097 23.2575 21.836C22.9952 21.9553 22.878 22.264 22.9883 22.5307C23.0712 22.7272 23.2644 22.8465 23.4645 22.8465C23.5335 22.8465 23.6025 22.8323 23.6716 22.8043C24.1477 22.5938 24.5065 22.278 24.7342 21.8781C25.5761 20.3907 24.4514 18.0681 21.7945 15.8157V15.8017Z" fill="white"/>
<path id="Vector_6" d="M12.4234 18.9871C12.52 19.0713 12.6374 19.1064 12.7547 19.1064C12.8996 19.1064 13.0514 19.0432 13.1549 18.917C13.3412 18.6924 13.3067 18.3626 13.0859 18.1732C10.9467 16.3559 9.83563 14.4122 10.3808 13.444C10.4981 13.2405 10.6913 13.0791 10.9605 12.9528C11.2227 12.8335 11.34 12.5248 11.2296 12.2581C11.1123 11.9915 10.8087 11.8722 10.5464 11.9845C10.0703 12.195 9.71143 12.5107 9.48371 12.9107C8.6418 14.3982 9.76663 16.7208 12.4234 18.973V18.9871Z" fill="white"/>
<path id="Vector_7" d="M18.0957 12.4757C17.8266 12.5739 17.6885 12.8756 17.7852 13.1493C17.8818 13.4229 18.1785 13.5633 18.4477 13.465C21.063 12.4897 23.2783 12.4827 23.8233 13.451C23.9407 13.6545 23.9821 13.9071 23.9476 14.2088C23.913 14.4965 24.1202 14.7561 24.403 14.7912C24.4237 14.7912 24.4444 14.7912 24.4583 14.7912C24.7205 14.7912 24.9412 14.5947 24.9689 14.3211C25.0242 13.7948 24.9412 13.3247 24.7136 12.9177C23.8717 11.4302 21.3322 11.2618 18.0819 12.4757H18.0957Z" fill="white"/>
<path id="Vector_8" d="M16.4259 21.6385C16.3293 21.3649 16.0326 21.2246 15.7633 21.3228C13.148 22.2981 10.9329 22.305 10.3877 21.3368C10.2704 21.1334 10.229 20.8807 10.2635 20.579C10.298 20.2914 10.091 20.0318 9.80802 19.9966C9.52509 19.9616 9.26977 20.1721 9.23526 20.4598C9.18005 20.986 9.26286 21.4561 9.49058 21.8631C9.95983 22.691 10.9536 23.1121 12.3061 23.1121C13.3826 23.1121 14.68 22.8454 16.1223 22.3121C16.3913 22.2138 16.5294 21.9122 16.4327 21.6385H16.4259Z" fill="white"/>
<path id="Vector_9" d="M22.6295 4.23767H11.5883C7.4961 4.23767 4.16992 7.61968 4.16992 11.7805V23.0071C4.16992 27.168 7.4961 30.55 11.5883 30.55H22.6295C26.7217 30.55 30.0479 27.168 30.0479 23.0071V11.7805C30.0479 7.61968 26.7217 4.23767 22.6295 4.23767ZM29.0128 23.0071C29.0128 26.5856 26.149 29.4975 22.6295 29.4975H11.5883C8.06886 29.4975 5.20503 26.5856 5.20503 23.0071V11.7805C5.20503 8.20206 8.06886 5.29017 11.5883 5.29017H22.6295C26.149 5.29017 29.0128 8.20206 29.0128 11.7805V23.0071Z" fill="white"/>
</g>
<defs>
<clipPath id="clip0_376_90">
<rect width="59" height="35" fill="white"/>
</clipPath>
</defs>
</svg>
