<svg width="104" height="104" viewBox="0 0 104 104" fill="none" xmlns="http://www.w3.org/2000/svg">
<g filter="url(#filter0_d_2_20)">
<path d="M4 11C4 4.92487 8.92487 0 15 0L89 0C95.0751 0 100 4.92487 100 11V85C100 91.0751 95.0751 96 89 96H15C8.92487 96 4 91.0751 4 85L4 11Z" fill="#55FFEE" style="fill:#55FFEE;fill:color(display-p3 0.3333 1.0000 0.9333);fill-opacity:1;"/>
</g>
<g filter="url(#filter1_d_2_20)">
<path d="M63.6312 55.0306C62.7125 54.8511 61.8386 55.4808 61.682 56.4029C60.1359 65.3526 56.5513 71.6046 52.9887 71.6046C52.2271 71.6046 51.4655 71.3124 50.6809 70.75C49.9418 70.1876 48.8889 70.3451 48.3288 71.1096C47.7687 71.8516 47.9477 72.9089 48.6869 73.4708C50.054 74.4829 51.4879 75 52.9887 75C58.4556 75 63.0711 68.0966 64.9753 56.9874C65.1319 56.0653 64.5274 55.1881 63.6087 55.0306H63.6312Z" fill="#555555" style="fill:#555555;fill:color(display-p3 0.3333 0.3333 0.3333);fill-opacity:1;"/>
</g>
<g filter="url(#filter2_d_2_20)">
<path d="M41.369 41.9775C41.369 41.9775 41.5706 42 41.6603 42C42.4668 42 43.1614 41.4151 43.3182 40.6052C44.8641 31.6513 48.4487 25.3971 52.0114 25.3971C52.773 25.3971 53.5346 25.6896 54.3191 26.252C55.0583 26.8144 56.1111 26.6344 56.6712 25.8921C57.2313 25.1496 57.0523 24.0923 56.3126 23.5298C54.946 22.5175 53.5121 22 52.0114 22C46.5445 22 41.9291 28.9066 40.0247 40.0203C39.8679 40.9427 40.4728 41.82 41.3914 41.9775H41.369Z" fill="#555555" style="fill:#555555;fill:color(display-p3 0.3333 0.3333 0.3333);fill-opacity:1;"/>
</g>
<g filter="url(#filter3_d_2_20)">
<path d="M67.5145 44.3594C66.863 43.8043 65.9056 43.9071 65.3557 44.565C64.8063 45.223 64.9079 46.1892 65.5597 46.7442C71.8722 52.0689 75.1506 57.7633 73.5423 60.6006C73.1959 61.1965 72.6256 61.6693 71.8314 62.0395C71.0576 62.3889 70.7117 63.2935 71.0372 64.0748C71.2815 64.6505 71.8518 65 72.4425 65C72.646 65 72.8496 64.9586 73.0536 64.8763C74.4584 64.2596 75.5174 63.3344 76.1892 62.1627C78.6738 57.8046 75.3546 50.9997 67.5145 44.4003V44.3594Z" fill="#555555" style="fill:#555555;fill:color(display-p3 0.3333 0.3333 0.3333);fill-opacity:1;"/>
</g>
<g filter="url(#filter4_d_2_20)">
<path d="M37.4855 52.6503C37.7706 52.8969 38.1168 53 38.4629 53C38.8906 53 39.3386 52.8146 39.644 52.4447C40.1938 51.7863 40.092 50.8197 39.4404 50.2644C33.1277 44.9373 29.8492 39.2399 31.4579 36.4016C31.8041 35.8051 32.3743 35.332 33.1684 34.9618C33.9423 34.6122 34.2884 33.7072 33.9626 32.9256C33.6164 32.144 32.7204 31.7944 31.9466 32.1234C30.5415 32.7405 29.4826 33.666 28.8106 34.8384C26.3263 39.1988 29.6456 46.0069 37.4855 52.6089V52.6503Z" fill="#555555" style="fill:#555555;fill:color(display-p3 0.3333 0.3333 0.3333);fill-opacity:1;"/>
</g>
<g filter="url(#filter5_d_2_20)">
<path d="M56.0386 34.5796C55.2197 34.8944 54.8 35.8613 55.0935 36.7382C55.3875 37.6152 56.2905 38.0649 57.1093 37.7501C65.0665 34.6245 71.8061 34.602 73.4644 37.7051C73.8215 38.3572 73.9472 39.1667 73.8425 40.1336C73.7374 41.0555 74.3674 41.8876 75.2283 42C75.2909 42 75.354 42 75.3961 42C76.1939 42 76.8656 41.3704 76.9497 40.4934C77.1179 38.807 76.8656 37.3004 76.1729 35.9961C73.6116 31.2291 65.8854 30.6894 55.9965 34.5796H56.0386Z" fill="#555555" style="fill:#555555;fill:color(display-p3 0.3333 0.3333 0.3333);fill-opacity:1;"/>
</g>
<g filter="url(#filter6_d_2_20)">
<path d="M49.8855 60.2758C49.592 59.3988 48.6912 58.949 47.8739 59.2639C39.9317 62.3906 33.2051 62.4127 31.5496 59.3087C31.1934 58.6566 31.0677 57.8465 31.1725 56.8794C31.2773 55.9571 30.6486 55.1249 29.7894 55.0122C28.9302 54.9 28.1549 55.5747 28.0501 56.497C27.8825 58.1841 28.1339 59.6911 28.8255 60.9958C30.2504 63.65 33.268 65 37.3752 65C40.6442 65 44.5838 64.1451 48.9637 62.4354C49.7805 62.1204 50.1999 61.1533 49.9065 60.2758H49.8855Z" fill="#555555" style="fill:#555555;fill:color(display-p3 0.3333 0.3333 0.3333);fill-opacity:1;"/>
</g>
<g filter="url(#filter7_d_2_20)">
<path d="M68.9266 10H36.0734C23.8971 10 14 19.8971 14 32.0733V64.9266C14 77.103 23.8971 87 36.0734 87H68.9266C81.1033 87 91 77.103 91 64.9266V32.0733C91 19.8971 81.1033 10 68.9266 10ZM87.9201 64.9266C87.9201 75.3986 79.3988 83.9199 68.9266 83.9199H36.0734C25.6014 83.9199 17.08 75.3986 17.08 64.9266V32.0733C17.08 21.6013 25.6014 13.08 36.0734 13.08H68.9266C79.3988 13.08 87.9201 21.6013 87.9201 32.0733V64.9266Z" fill="#555555" style="fill:#555555;fill:color(display-p3 0.3333 0.3333 0.3333);fill-opacity:1;"/>
</g>
<defs>
<filter id="filter0_d_2_20" x="0" y="0" width="104" height="104" filterUnits="userSpaceOnUse" color-interpolation-filters="sRGB">
<feFlood flood-opacity="0" result="BackgroundImageFix"/>
<feColorMatrix in="SourceAlpha" type="matrix" values="0 0 0 0 0 0 0 0 0 0 0 0 0 0 0 0 0 0 127 0" result="hardAlpha"/>
<feOffset dy="4"/>
<feGaussianBlur stdDeviation="2"/>
<feComposite in2="hardAlpha" operator="out"/>
<feColorMatrix type="matrix" values="0 0 0 0 0 0 0 0 0 0 0 0 0 0 0 0 0 0 0.25 0"/>
<feBlend mode="normal" in2="BackgroundImageFix" result="effect1_dropShadow_2_20"/>
<feBlend mode="normal" in="SourceGraphic" in2="effect1_dropShadow_2_20" result="shape"/>
</filter>
<filter id="filter1_d_2_20" x="44" y="55" width="25" height="28" filterUnits="userSpaceOnUse" color-interpolation-filters="sRGB">
<feFlood flood-opacity="0" result="BackgroundImageFix"/>
<feColorMatrix in="SourceAlpha" type="matrix" values="0 0 0 0 0 0 0 0 0 0 0 0 0 0 0 0 0 0 127 0" result="hardAlpha"/>
<feOffset dy="4"/>
<feGaussianBlur stdDeviation="2"/>
<feComposite in2="hardAlpha" operator="out"/>
<feColorMatrix type="matrix" values="0 0 0 0 0 0 0 0 0 0 0 0 0 0 0 0 0 0 0.25 0"/>
<feBlend mode="normal" in2="BackgroundImageFix" result="effect1_dropShadow_2_20"/>
<feBlend mode="normal" in="SourceGraphic" in2="effect1_dropShadow_2_20" result="shape"/>
</filter>
<filter id="filter2_d_2_20" x="36" y="22" width="25" height="28" filterUnits="userSpaceOnUse" color-interpolation-filters="sRGB">
<feFlood flood-opacity="0" result="BackgroundImageFix"/>
<feColorMatrix in="SourceAlpha" type="matrix" values="0 0 0 0 0 0 0 0 0 0 0 0 0 0 0 0 0 0 127 0" result="hardAlpha"/>
<feOffset dy="4"/>
<feGaussianBlur stdDeviation="2"/>
<feComposite in2="hardAlpha" operator="out"/>
<feColorMatrix type="matrix" values="0 0 0 0 0 0 0 0 0 0 0 0 0 0 0 0 0 0 0.25 0"/>
<feBlend mode="normal" in2="BackgroundImageFix" result="effect1_dropShadow_2_20"/>
<feBlend mode="normal" in="SourceGraphic" in2="effect1_dropShadow_2_20" result="shape"/>
</filter>
<filter id="filter3_d_2_20" x="61" y="44" width="20" height="29" filterUnits="userSpaceOnUse" color-interpolation-filters="sRGB">
<feFlood flood-opacity="0" result="BackgroundImageFix"/>
<feColorMatrix in="SourceAlpha" type="matrix" values="0 0 0 0 0 0 0 0 0 0 0 0 0 0 0 0 0 0 127 0" result="hardAlpha"/>
<feOffset dy="4"/>
<feGaussianBlur stdDeviation="2"/>
<feComposite in2="hardAlpha" operator="out"/>
<feColorMatrix type="matrix" values="0 0 0 0 0 0 0 0 0 0 0 0 0 0 0 0 0 0 0.25 0"/>
<feBlend mode="normal" in2="BackgroundImageFix" result="effect1_dropShadow_2_20"/>
<feBlend mode="normal" in="SourceGraphic" in2="effect1_dropShadow_2_20" result="shape"/>
</filter>
<filter id="filter4_d_2_20" x="24" y="32" width="20" height="29" filterUnits="userSpaceOnUse" color-interpolation-filters="sRGB">
<feFlood flood-opacity="0" result="BackgroundImageFix"/>
<feColorMatrix in="SourceAlpha" type="matrix" values="0 0 0 0 0 0 0 0 0 0 0 0 0 0 0 0 0 0 127 0" result="hardAlpha"/>
<feOffset dy="4"/>
<feGaussianBlur stdDeviation="2"/>
<feComposite in2="hardAlpha" operator="out"/>
<feColorMatrix type="matrix" values="0 0 0 0 0 0 0 0 0 0 0 0 0 0 0 0 0 0 0.25 0"/>
<feBlend mode="normal" in2="BackgroundImageFix" result="effect1_dropShadow_2_20"/>
<feBlend mode="normal" in="SourceGraphic" in2="effect1_dropShadow_2_20" result="shape"/>
</filter>
<filter id="filter5_d_2_20" x="51" y="32" width="30" height="18" filterUnits="userSpaceOnUse" color-interpolation-filters="sRGB">
<feFlood flood-opacity="0" result="BackgroundImageFix"/>
<feColorMatrix in="SourceAlpha" type="matrix" values="0 0 0 0 0 0 0 0 0 0 0 0 0 0 0 0 0 0 127 0" result="hardAlpha"/>
<feOffset dy="4"/>
<feGaussianBlur stdDeviation="2"/>
<feComposite in2="hardAlpha" operator="out"/>
<feColorMatrix type="matrix" values="0 0 0 0 0 0 0 0 0 0 0 0 0 0 0 0 0 0 0.25 0"/>
<feBlend mode="normal" in2="BackgroundImageFix" result="effect1_dropShadow_2_20"/>
<feBlend mode="normal" in="SourceGraphic" in2="effect1_dropShadow_2_20" result="shape"/>
</filter>
<filter id="filter6_d_2_20" x="24" y="55" width="30" height="18" filterUnits="userSpaceOnUse" color-interpolation-filters="sRGB">
<feFlood flood-opacity="0" result="BackgroundImageFix"/>
<feColorMatrix in="SourceAlpha" type="matrix" values="0 0 0 0 0 0 0 0 0 0 0 0 0 0 0 0 0 0 127 0" result="hardAlpha"/>
<feOffset dy="4"/>
<feGaussianBlur stdDeviation="2"/>
<feComposite in2="hardAlpha" operator="out"/>
<feColorMatrix type="matrix" values="0 0 0 0 0 0 0 0 0 0 0 0 0 0 0 0 0 0 0.25 0"/>
<feBlend mode="normal" in2="BackgroundImageFix" result="effect1_dropShadow_2_20"/>
<feBlend mode="normal" in="SourceGraphic" in2="effect1_dropShadow_2_20" result="shape"/>
</filter>
<filter id="filter7_d_2_20" x="10" y="10" width="85" height="85" filterUnits="userSpaceOnUse" color-interpolation-filters="sRGB">
<feFlood flood-opacity="0" result="BackgroundImageFix"/>
<feColorMatrix in="SourceAlpha" type="matrix" values="0 0 0 0 0 0 0 0 0 0 0 0 0 0 0 0 0 0 127 0" result="hardAlpha"/>
<feOffset dy="4"/>
<feGaussianBlur stdDeviation="2"/>
<feComposite in2="hardAlpha" operator="out"/>
<feColorMatrix type="matrix" values="0 0 0 0 0 0 0 0 0 0 0 0 0 0 0 0 0 0 0.25 0"/>
<feBlend mode="normal" in2="BackgroundImageFix" result="effect1_dropShadow_2_20"/>
<feBlend mode="normal" in="SourceGraphic" in2="effect1_dropShadow_2_20" result="shape"/>
</filter>
</defs>
</svg>
