<svg width="30" height="30" viewBox="0 0 30 30" fill="none" xmlns="http://www.w3.org/2000/svg">
<circle cx="15" cy="15" r="15" fill="black" fill-opacity="0.34"/>
<path d="M23.7365 9.20834L20.7915 6.26351C20.6228 6.09478 20.3939 6 20.1552 6C19.9165 6 19.6877 6.09478 19.5189 6.26351L7.7364 18.0455C7.63733 18.1439 7.56272 18.2641 7.51859 18.3965L6.04612 22.8156C6.00108 22.9508 5.9888 23.0948 6.01029 23.2357C6.03179 23.3766 6.08644 23.5104 6.16975 23.626C6.25307 23.7417 6.36266 23.8359 6.4895 23.9009C6.61635 23.9659 6.75682 23.9999 6.89936 24C6.99608 24 7.09215 23.9842 7.18377 23.9532L11.603 22.4808C11.7354 22.4367 11.8557 22.362 11.954 22.263L23.7365 10.481C23.9052 10.3122 24 10.0833 24 9.84465C24 9.606 23.9052 9.37712 23.7365 9.20834ZM10.8317 20.8401L8.32233 21.6771L9.15937 19.1678L17.2085 11.1182L18.8816 12.7913L10.8317 20.8401ZM20.1552 11.5187L18.4811 9.84465L20.1552 8.17243L21.8275 9.84465L20.1552 11.5187Z" fill="white"/>
</svg>
