<svg width="30" height="37" viewBox="0 0 30 37" fill="none" xmlns="http://www.w3.org/2000/svg">
<g id="Group">
<path id="Vector" d="M25.6073 4.39359C22.6783 1.46456 18.8387 0 14.9998 0C11.1609 0 7.32203 1.46456 4.39292 4.39359C-1.46431 10.2505 -1.46431 19.7493 4.39292 25.6068L14.9998 36.2125L25.6072 25.6068C31.4642 19.7493 31.4642 10.2505 25.6073 4.39359ZM23.9349 23.9338L14.9998 32.8677L6.0657 23.9344C1.13931 19.0077 1.13931 10.9921 6.0657 6.06602C8.45191 3.67981 11.625 2.36541 14.9999 2.36541C18.3748 2.36541 21.5481 3.67981 23.9343 6.06602C28.861 10.9921 28.861 19.0077 23.9349 23.9338Z" fill="black"/>
<path id="Vector_2" d="M15 15.0795C17.1581 15.0795 18.9076 13.3309 18.9076 11.1716C18.9076 9.01352 17.1581 7.26428 15 7.26428C12.8413 7.26428 11.0918 9.01352 11.0918 11.1716C11.0918 13.3309 12.8414 15.0795 15 15.0795Z" fill="black"/>
<path id="Vector_3" d="M14.9999 16.5487C11.9031 16.5487 9.39307 19.0597 9.39307 22.1556H20.6066C20.6066 19.0597 18.0962 16.5487 14.9999 16.5487Z" fill="black"/>
</g>
</svg>
