<svg width="47" height="47" viewBox="0 0 47 47" fill="none" xmlns="http://www.w3.org/2000/svg">
<g id="Group">
<path id="Vector" d="M23.501 0C10.5231 0 0 10.521 0 23.5C0 36.4789 10.5221 46.9999 23.501 46.9999C36.4809 46.9999 47.002 36.4789 47.002 23.5C47.002 10.521 36.4809 0 23.501 0ZM23.501 7.02676C27.7953 7.02676 31.2751 10.5076 31.2751 14.7999C31.2751 19.0931 27.7953 22.573 23.501 22.573C19.2087 22.573 15.7289 19.0931 15.7289 14.7999C15.7289 10.5076 19.2087 7.02676 23.501 7.02676ZM23.4958 40.8558C19.2129 40.8558 15.2902 39.296 12.2646 36.7142C11.5275 36.0856 11.1022 35.1637 11.1022 34.1965C11.1022 29.8433 14.6254 26.3594 18.9796 26.3594H28.0245C32.3797 26.3594 35.8894 29.8433 35.8894 34.1965C35.8894 35.1648 35.4662 36.0845 34.7281 36.7132C31.7035 39.296 27.7798 40.8558 23.4958 40.8558Z" fill="#5FE0D8"/>
</g>
</svg>
