<svg width="20" height="20" viewBox="0 0 20 20" fill="none" xmlns="http://www.w3.org/2000/svg">
<path d="M8.9974 11.835V11.61C8.9974 11.11 9.0624 10.71 9.1924 10.41C9.3224 10.11 9.5824 9.815 9.9724 9.525L10.7374 9C11.4074 8.52 11.7424 7.895 11.7424 7.125C11.7424 6.625 11.5824 6.22 11.2624 5.91C10.9524 5.6 10.5274 5.445 9.9874 5.445C9.3674 5.445 8.8724 5.63 8.5024 6C8.1424 6.37 7.9624 6.9 7.9624 7.59H6.5974C6.5974 6.54 6.9024 5.72 7.5124 5.13C8.1324 4.54 8.9774 4.245 10.0474 4.245C11.0274 4.245 11.7924 4.505 12.3424 5.025C12.8924 5.545 13.1674 6.23 13.1674 7.08C13.1674 7.68 13.0324 8.185 12.7624 8.595C12.5024 9.005 12.1324 9.4 11.6524 9.78L11.0074 10.245C10.7274 10.455 10.5374 10.655 10.4374 10.845C10.3474 11.025 10.3024 11.275 10.3024 11.595V11.835H8.9974ZM10.4224 14.79C10.2124 15 9.9524 15.105 9.6424 15.105C9.3324 15.105 9.0724 15 8.8624 14.79C8.6524 14.57 8.5474 14.31 8.5474 14.01C8.5474 13.71 8.6524 13.455 8.8624 13.245C9.0724 13.025 9.3324 12.915 9.6424 12.915C9.9524 12.915 10.2124 13.025 10.4224 13.245C10.6324 13.455 10.7374 13.71 10.7374 14.01C10.7374 14.31 10.6324 14.57 10.4224 14.79Z" fill="#6B6B6B"/>
<circle cx="10" cy="10" r="9.25" stroke="#6B6B6B" stroke-width="1.5"/>
</svg>
