<svg width="68" height="68" viewBox="0 0 68 68" fill="none" xmlns="http://www.w3.org/2000/svg">
<circle cx="34" cy="34" r="32" stroke="#FF0000" stroke-width="4"/>
<path d="M18.15 18.1535C18.699 17.6044 19.5891 17.6044 20.1381 18.1535L49.8737 47.889C50.4226 48.4379 50.4226 49.3281 49.8737 49.877C49.3247 50.4261 48.4346 50.4261 47.8856 49.877L18.15 20.1415C17.601 19.5926 17.601 18.7024 18.15 18.1535Z" fill="#FF0000"/>
<path d="M49.8492 18.126C49.3003 17.577 48.4101 17.577 47.8612 18.126L18.1256 47.8615C17.5766 48.4105 17.5766 49.3006 18.1256 49.8496C18.6746 50.3986 19.5647 50.3986 20.1137 49.8496L49.8492 20.1141C50.3982 19.5651 50.3982 18.675 49.8492 18.126Z" fill="#FF0000"/>
</svg>
